<mxfile host="app.diagrams.net" modified="2023-12-26T10:04:04.220Z" agent="Mozilla/5.0 (Windows NT 10.0; Win64; x64) AppleWebKit/537.36 (KHTML, like Gecko) Chrome/120.0.0.0 Safari/537.36" etag="TcXA3iyilP4ufc6lRlo7" version="22.1.11" type="github">
  <diagram name="第 1 页" id="jV8dghcpsc7H1zNgrA4P">
    <mxGraphModel dx="2074" dy="1110" grid="1" gridSize="10" guides="1" tooltips="1" connect="1" arrows="1" fold="1" page="1" pageScale="1" pageWidth="2339" pageHeight="3300" math="0" shadow="0">
      <root>
        <mxCell id="0" />
        <mxCell id="1" parent="0" />
        <mxCell id="hPbzqFShQKLHymM82x7Q-2" value="&lt;font style=&quot;font-size: 32px;&quot;&gt;BitVector Entry&lt;/font&gt;" style="text;html=1;strokeColor=none;fillColor=none;align=center;verticalAlign=middle;whiteSpace=wrap;rounded=0;" vertex="1" parent="1">
          <mxGeometry x="320" y="523.75" width="310" height="72.5" as="geometry" />
        </mxCell>
        <mxCell id="hPbzqFShQKLHymM82x7Q-7" value="&lt;font style=&quot;font-size: 24px;&quot;&gt;Region Tag&lt;/font&gt;" style="text;html=1;strokeColor=none;fillColor=none;align=center;verticalAlign=middle;whiteSpace=wrap;rounded=0;" vertex="1" parent="1">
          <mxGeometry x="600" y="470" width="310" height="72.5" as="geometry" />
        </mxCell>
        <mxCell id="hPbzqFShQKLHymM82x7Q-9" value="&lt;font style=&quot;font-size: 24px;&quot;&gt;29&lt;/font&gt;" style="text;html=1;strokeColor=none;fillColor=none;align=center;verticalAlign=middle;whiteSpace=wrap;rounded=0;" vertex="1" parent="1">
          <mxGeometry x="600" y="523.75" width="310" height="72.5" as="geometry" />
        </mxCell>
        <mxCell id="hPbzqFShQKLHymM82x7Q-17" value="" style="group" vertex="1" connectable="0" parent="1">
          <mxGeometry x="630" y="358.5158280980728" width="820" height="270.4683438038544" as="geometry" />
        </mxCell>
        <mxCell id="hPbzqFShQKLHymM82x7Q-1" value="" style="rounded=0;whiteSpace=wrap;html=1;" vertex="1" parent="hPbzqFShQKLHymM82x7Q-17">
          <mxGeometry y="171.4841719019272" width="730" height="60" as="geometry" />
        </mxCell>
        <mxCell id="hPbzqFShQKLHymM82x7Q-3" value="" style="endArrow=none;html=1;rounded=0;entryX=0.109;entryY=-0.044;entryDx=0;entryDy=0;entryPerimeter=0;" edge="1" parent="hPbzqFShQKLHymM82x7Q-17">
          <mxGeometry width="50" height="50" relative="1" as="geometry">
            <mxPoint x="250" y="231.4841719019272" as="sourcePoint" />
            <mxPoint x="250" y="171.48417190192708" as="targetPoint" />
          </mxGeometry>
        </mxCell>
        <mxCell id="hPbzqFShQKLHymM82x7Q-4" value="" style="endArrow=none;html=1;rounded=0;entryX=0.109;entryY=-0.044;entryDx=0;entryDy=0;entryPerimeter=0;" edge="1" parent="hPbzqFShQKLHymM82x7Q-17">
          <mxGeometry width="50" height="50" relative="1" as="geometry">
            <mxPoint x="530" y="231.4841719019272" as="sourcePoint" />
            <mxPoint x="530" y="171.48417190192708" as="targetPoint" />
          </mxGeometry>
        </mxCell>
        <mxCell id="hPbzqFShQKLHymM82x7Q-5" value="" style="endArrow=none;html=1;rounded=0;entryX=0.109;entryY=-0.044;entryDx=0;entryDy=0;entryPerimeter=0;" edge="1" parent="hPbzqFShQKLHymM82x7Q-17">
          <mxGeometry width="50" height="50" relative="1" as="geometry">
            <mxPoint x="570" y="231.4841719019272" as="sourcePoint" />
            <mxPoint x="570" y="171.48417190192708" as="targetPoint" />
          </mxGeometry>
        </mxCell>
        <mxCell id="hPbzqFShQKLHymM82x7Q-6" value="" style="endArrow=none;html=1;rounded=0;entryX=0.109;entryY=-0.044;entryDx=0;entryDy=0;entryPerimeter=0;" edge="1" parent="hPbzqFShQKLHymM82x7Q-17">
          <mxGeometry width="50" height="50" relative="1" as="geometry">
            <mxPoint x="610" y="231.4841719019272" as="sourcePoint" />
            <mxPoint x="610" y="171.48417190192708" as="targetPoint" />
          </mxGeometry>
        </mxCell>
        <mxCell id="hPbzqFShQKLHymM82x7Q-8" value="&lt;font style=&quot;font-size: 24px;&quot;&gt;Bit Vector&lt;/font&gt;" style="text;html=1;strokeColor=none;fillColor=none;align=center;verticalAlign=middle;whiteSpace=wrap;rounded=0;" vertex="1" parent="hPbzqFShQKLHymM82x7Q-17">
          <mxGeometry x="240" y="111.4841719019272" width="310" height="72.5" as="geometry" />
        </mxCell>
        <mxCell id="hPbzqFShQKLHymM82x7Q-10" value="&lt;font style=&quot;font-size: 24px;&quot;&gt;16&lt;/font&gt;" style="text;html=1;strokeColor=none;fillColor=none;align=center;verticalAlign=middle;whiteSpace=wrap;rounded=0;" vertex="1" parent="hPbzqFShQKLHymM82x7Q-17">
          <mxGeometry x="240" y="165.2341719019272" width="310" height="72.5" as="geometry" />
        </mxCell>
        <mxCell id="hPbzqFShQKLHymM82x7Q-11" value="&lt;span style=&quot;font-size: 24px;&quot;&gt;Active&lt;/span&gt;" style="text;html=1;strokeColor=none;fillColor=none;align=center;verticalAlign=middle;whiteSpace=wrap;rounded=0;rotation=-45;" vertex="1" parent="hPbzqFShQKLHymM82x7Q-17">
          <mxGeometry x="395" y="98.9841719019272" width="310" height="72.5" as="geometry" />
        </mxCell>
        <mxCell id="hPbzqFShQKLHymM82x7Q-12" value="&lt;font style=&quot;font-size: 24px;&quot;&gt;1&lt;/font&gt;" style="text;html=1;strokeColor=none;fillColor=none;align=center;verticalAlign=middle;whiteSpace=wrap;rounded=0;" vertex="1" parent="hPbzqFShQKLHymM82x7Q-17">
          <mxGeometry x="520" y="168.3641719019272" width="60" height="66.25" as="geometry" />
        </mxCell>
        <mxCell id="hPbzqFShQKLHymM82x7Q-13" value="&lt;span style=&quot;font-size: 24px;&quot;&gt;Counter&lt;/span&gt;" style="text;html=1;strokeColor=none;fillColor=none;align=center;verticalAlign=middle;whiteSpace=wrap;rounded=0;" vertex="1" parent="hPbzqFShQKLHymM82x7Q-17">
          <mxGeometry x="510" y="111.4841719019272" width="310" height="72.5" as="geometry" />
        </mxCell>
        <mxCell id="hPbzqFShQKLHymM82x7Q-14" value="&lt;font style=&quot;font-size: 24px;&quot;&gt;1&lt;/font&gt;" style="text;html=1;strokeColor=none;fillColor=none;align=center;verticalAlign=middle;whiteSpace=wrap;rounded=0;" vertex="1" parent="hPbzqFShQKLHymM82x7Q-17">
          <mxGeometry x="560" y="168.3541719019272" width="60" height="66.25" as="geometry" />
        </mxCell>
        <mxCell id="hPbzqFShQKLHymM82x7Q-15" value="&lt;span style=&quot;font-size: 24px;&quot;&gt;Decr&lt;/span&gt;" style="text;html=1;strokeColor=none;fillColor=none;align=center;verticalAlign=middle;whiteSpace=wrap;rounded=0;rotation=-45;" vertex="1" parent="hPbzqFShQKLHymM82x7Q-17">
          <mxGeometry x="440" y="98.9841719019272" width="310" height="72.5" as="geometry" />
        </mxCell>
        <mxCell id="hPbzqFShQKLHymM82x7Q-16" value="&lt;font style=&quot;font-size: 24px;&quot;&gt;4&lt;/font&gt;" style="text;html=1;strokeColor=none;fillColor=none;align=center;verticalAlign=middle;whiteSpace=wrap;rounded=0;" vertex="1" parent="hPbzqFShQKLHymM82x7Q-17">
          <mxGeometry x="510" y="165.2441719019272" width="310" height="72.5" as="geometry" />
        </mxCell>
        <mxCell id="hPbzqFShQKLHymM82x7Q-230" value="&lt;span style=&quot;font-size: 24px;&quot;&gt;29&lt;/span&gt;" style="text;html=1;strokeColor=none;fillColor=none;align=center;verticalAlign=middle;whiteSpace=wrap;rounded=0;" vertex="1" parent="hPbzqFShQKLHymM82x7Q-17">
          <mxGeometry x="-30" y="165.2441719019272" width="310" height="72.5" as="geometry" />
        </mxCell>
        <mxCell id="hPbzqFShQKLHymM82x7Q-18" value="" style="endArrow=classic;html=1;rounded=0;" edge="1" parent="1">
          <mxGeometry width="50" height="50" relative="1" as="geometry">
            <mxPoint x="640" y="850" as="sourcePoint" />
            <mxPoint x="1390" y="850" as="targetPoint" />
          </mxGeometry>
        </mxCell>
        <mxCell id="hPbzqFShQKLHymM82x7Q-19" value="&lt;font style=&quot;font-size: 32px;&quot;&gt;Timeline&lt;/font&gt;" style="text;html=1;strokeColor=none;fillColor=none;align=center;verticalAlign=middle;whiteSpace=wrap;rounded=0;" vertex="1" parent="1">
          <mxGeometry x="510" y="820" width="130" height="52.5" as="geometry" />
        </mxCell>
        <mxCell id="hPbzqFShQKLHymM82x7Q-20" value="" style="shape=ellipse;fillColor=#000000;strokeColor=none;html=1;sketch=0;" vertex="1" parent="1">
          <mxGeometry x="700" y="844.25" width="10" height="10" as="geometry" />
        </mxCell>
        <mxCell id="hPbzqFShQKLHymM82x7Q-25" value="" style="shape=ellipse;fillColor=#000000;strokeColor=none;html=1;sketch=0;" vertex="1" parent="1">
          <mxGeometry x="740" y="844.25" width="10" height="10" as="geometry" />
        </mxCell>
        <mxCell id="hPbzqFShQKLHymM82x7Q-29" value="" style="shape=ellipse;fillColor=#000000;strokeColor=none;html=1;sketch=0;" vertex="1" parent="1">
          <mxGeometry x="780" y="844.25" width="10" height="10" as="geometry" />
        </mxCell>
        <mxCell id="hPbzqFShQKLHymM82x7Q-30" value="" style="shape=ellipse;fillColor=#000000;strokeColor=none;html=1;sketch=0;" vertex="1" parent="1">
          <mxGeometry x="825" y="844.25" width="10" height="10" as="geometry" />
        </mxCell>
        <mxCell id="hPbzqFShQKLHymM82x7Q-31" value="" style="shape=ellipse;fillColor=#000000;strokeColor=none;html=1;sketch=0;" vertex="1" parent="1">
          <mxGeometry x="865" y="844.25" width="10" height="10" as="geometry" />
        </mxCell>
        <mxCell id="hPbzqFShQKLHymM82x7Q-32" value="" style="shape=ellipse;fillColor=#000000;strokeColor=none;html=1;sketch=0;" vertex="1" parent="1">
          <mxGeometry x="917" y="844.25" width="10" height="10" as="geometry" />
        </mxCell>
        <mxCell id="hPbzqFShQKLHymM82x7Q-33" value="" style="shape=ellipse;fillColor=#000000;strokeColor=none;html=1;sketch=0;" vertex="1" parent="1">
          <mxGeometry x="954" y="844.25" width="10" height="10" as="geometry" />
        </mxCell>
        <mxCell id="hPbzqFShQKLHymM82x7Q-34" value="" style="shape=ellipse;fillColor=#000000;strokeColor=none;html=1;sketch=0;" vertex="1" parent="1">
          <mxGeometry x="995" y="844.25" width="10" height="10" as="geometry" />
        </mxCell>
        <mxCell id="hPbzqFShQKLHymM82x7Q-35" value="" style="shape=ellipse;fillColor=#000000;strokeColor=none;html=1;sketch=0;" vertex="1" parent="1">
          <mxGeometry x="1054" y="844.25" width="10" height="10" as="geometry" />
        </mxCell>
        <mxCell id="hPbzqFShQKLHymM82x7Q-36" value="" style="shape=ellipse;fillColor=#000000;strokeColor=none;html=1;sketch=0;" vertex="1" parent="1">
          <mxGeometry x="1084" y="844.25" width="10" height="10" as="geometry" />
        </mxCell>
        <mxCell id="hPbzqFShQKLHymM82x7Q-37" value="" style="shape=ellipse;fillColor=#000000;strokeColor=none;html=1;sketch=0;" vertex="1" parent="1">
          <mxGeometry x="1144" y="844.25" width="10" height="10" as="geometry" />
        </mxCell>
        <mxCell id="hPbzqFShQKLHymM82x7Q-38" value="" style="shape=ellipse;fillColor=#000000;strokeColor=none;html=1;sketch=0;" vertex="1" parent="1">
          <mxGeometry x="1184" y="844.25" width="10" height="10" as="geometry" />
        </mxCell>
        <mxCell id="hPbzqFShQKLHymM82x7Q-40" value="" style="shape=table;startSize=0;container=1;collapsible=0;childLayout=tableLayout;" vertex="1" parent="1">
          <mxGeometry x="560" y="910" width="850" height="30" as="geometry" />
        </mxCell>
        <mxCell id="hPbzqFShQKLHymM82x7Q-41" value="" style="shape=tableRow;horizontal=0;startSize=0;swimlaneHead=0;swimlaneBody=0;strokeColor=inherit;top=0;left=0;bottom=0;right=0;collapsible=0;dropTarget=0;fillColor=none;points=[[0,0.5],[1,0.5]];portConstraint=eastwest;" vertex="1" parent="hPbzqFShQKLHymM82x7Q-40">
          <mxGeometry width="850" height="30" as="geometry" />
        </mxCell>
        <mxCell id="hPbzqFShQKLHymM82x7Q-42" value="0 -&amp;gt; 1" style="shape=partialRectangle;html=1;whiteSpace=wrap;connectable=0;strokeColor=inherit;overflow=hidden;fillColor=none;top=0;left=0;bottom=0;right=0;pointerEvents=1;" vertex="1" parent="hPbzqFShQKLHymM82x7Q-41">
          <mxGeometry width="53" height="30" as="geometry">
            <mxRectangle width="53" height="30" as="alternateBounds" />
          </mxGeometry>
        </mxCell>
        <mxCell id="hPbzqFShQKLHymM82x7Q-43" value="0 -&amp;gt; 1" style="shape=partialRectangle;html=1;whiteSpace=wrap;connectable=0;strokeColor=inherit;overflow=hidden;fillColor=none;top=0;left=0;bottom=0;right=0;pointerEvents=1;" vertex="1" parent="hPbzqFShQKLHymM82x7Q-41">
          <mxGeometry x="53" width="53" height="30" as="geometry">
            <mxRectangle width="53" height="30" as="alternateBounds" />
          </mxGeometry>
        </mxCell>
        <mxCell id="hPbzqFShQKLHymM82x7Q-44" value="0 -&amp;gt; 1" style="shape=partialRectangle;html=1;whiteSpace=wrap;connectable=0;strokeColor=inherit;overflow=hidden;fillColor=none;top=0;left=0;bottom=0;right=0;pointerEvents=1;" vertex="1" parent="hPbzqFShQKLHymM82x7Q-41">
          <mxGeometry x="106" width="54" height="30" as="geometry">
            <mxRectangle width="54" height="30" as="alternateBounds" />
          </mxGeometry>
        </mxCell>
        <mxCell id="hPbzqFShQKLHymM82x7Q-45" value="0 -&amp;gt; 1" style="shape=partialRectangle;html=1;whiteSpace=wrap;connectable=0;strokeColor=inherit;overflow=hidden;fillColor=none;top=0;left=0;bottom=0;right=0;pointerEvents=1;" vertex="1" parent="hPbzqFShQKLHymM82x7Q-41">
          <mxGeometry x="160" width="53" height="30" as="geometry">
            <mxRectangle width="53" height="30" as="alternateBounds" />
          </mxGeometry>
        </mxCell>
        <mxCell id="hPbzqFShQKLHymM82x7Q-46" value="0 -&amp;gt; 1" style="shape=partialRectangle;html=1;whiteSpace=wrap;connectable=0;strokeColor=inherit;overflow=hidden;fillColor=none;top=0;left=0;bottom=0;right=0;pointerEvents=1;" vertex="1" parent="hPbzqFShQKLHymM82x7Q-41">
          <mxGeometry x="213" width="52" height="30" as="geometry">
            <mxRectangle width="52" height="30" as="alternateBounds" />
          </mxGeometry>
        </mxCell>
        <mxCell id="hPbzqFShQKLHymM82x7Q-47" value="0 -&amp;gt; 1" style="shape=partialRectangle;html=1;whiteSpace=wrap;connectable=0;strokeColor=inherit;overflow=hidden;fillColor=none;top=0;left=0;bottom=0;right=0;pointerEvents=1;" vertex="1" parent="hPbzqFShQKLHymM82x7Q-41">
          <mxGeometry x="265" width="54" height="30" as="geometry">
            <mxRectangle width="54" height="30" as="alternateBounds" />
          </mxGeometry>
        </mxCell>
        <mxCell id="hPbzqFShQKLHymM82x7Q-48" value="0 -&amp;gt; 1" style="shape=partialRectangle;html=1;whiteSpace=wrap;connectable=0;strokeColor=inherit;overflow=hidden;fillColor=none;top=0;left=0;bottom=0;right=0;pointerEvents=1;" vertex="1" parent="hPbzqFShQKLHymM82x7Q-41">
          <mxGeometry x="319" width="53" height="30" as="geometry">
            <mxRectangle width="53" height="30" as="alternateBounds" />
          </mxGeometry>
        </mxCell>
        <mxCell id="hPbzqFShQKLHymM82x7Q-49" value="0 -&amp;gt; 1" style="shape=partialRectangle;html=1;whiteSpace=wrap;connectable=0;strokeColor=inherit;overflow=hidden;fillColor=none;top=0;left=0;bottom=0;right=0;pointerEvents=1;" vertex="1" parent="hPbzqFShQKLHymM82x7Q-41">
          <mxGeometry x="372" width="53" height="30" as="geometry">
            <mxRectangle width="53" height="30" as="alternateBounds" />
          </mxGeometry>
        </mxCell>
        <mxCell id="hPbzqFShQKLHymM82x7Q-50" value="0 -&amp;gt; 1" style="shape=partialRectangle;html=1;whiteSpace=wrap;connectable=0;strokeColor=inherit;overflow=hidden;fillColor=none;top=0;left=0;bottom=0;right=0;pointerEvents=1;" vertex="1" parent="hPbzqFShQKLHymM82x7Q-41">
          <mxGeometry x="425" width="53" height="30" as="geometry">
            <mxRectangle width="53" height="30" as="alternateBounds" />
          </mxGeometry>
        </mxCell>
        <mxCell id="hPbzqFShQKLHymM82x7Q-51" value="0 -&amp;gt; 1" style="shape=partialRectangle;html=1;whiteSpace=wrap;connectable=0;strokeColor=inherit;overflow=hidden;fillColor=none;top=0;left=0;bottom=0;right=0;pointerEvents=1;" vertex="1" parent="hPbzqFShQKLHymM82x7Q-41">
          <mxGeometry x="478" width="53" height="30" as="geometry">
            <mxRectangle width="53" height="30" as="alternateBounds" />
          </mxGeometry>
        </mxCell>
        <mxCell id="hPbzqFShQKLHymM82x7Q-52" value="0" style="shape=partialRectangle;html=1;whiteSpace=wrap;connectable=0;strokeColor=inherit;overflow=hidden;fillColor=none;top=0;left=0;bottom=0;right=0;pointerEvents=1;" vertex="1" parent="hPbzqFShQKLHymM82x7Q-41">
          <mxGeometry x="531" width="54" height="30" as="geometry">
            <mxRectangle width="54" height="30" as="alternateBounds" />
          </mxGeometry>
        </mxCell>
        <mxCell id="hPbzqFShQKLHymM82x7Q-53" value="0 -&amp;gt; 1" style="shape=partialRectangle;html=1;whiteSpace=wrap;connectable=0;strokeColor=inherit;overflow=hidden;fillColor=none;top=0;left=0;bottom=0;right=0;pointerEvents=1;" vertex="1" parent="hPbzqFShQKLHymM82x7Q-41">
          <mxGeometry x="585" width="53" height="30" as="geometry">
            <mxRectangle width="53" height="30" as="alternateBounds" />
          </mxGeometry>
        </mxCell>
        <mxCell id="hPbzqFShQKLHymM82x7Q-54" value="0 -&amp;gt; 1" style="shape=partialRectangle;html=1;whiteSpace=wrap;connectable=0;strokeColor=inherit;overflow=hidden;fillColor=none;top=0;left=0;bottom=0;right=0;pointerEvents=1;" vertex="1" parent="hPbzqFShQKLHymM82x7Q-41">
          <mxGeometry x="638" width="52" height="30" as="geometry">
            <mxRectangle width="52" height="30" as="alternateBounds" />
          </mxGeometry>
        </mxCell>
        <mxCell id="hPbzqFShQKLHymM82x7Q-55" value="0" style="shape=partialRectangle;html=1;whiteSpace=wrap;connectable=0;strokeColor=inherit;overflow=hidden;fillColor=none;top=0;left=0;bottom=0;right=0;pointerEvents=1;" vertex="1" parent="hPbzqFShQKLHymM82x7Q-41">
          <mxGeometry x="690" width="54" height="30" as="geometry">
            <mxRectangle width="54" height="30" as="alternateBounds" />
          </mxGeometry>
        </mxCell>
        <mxCell id="hPbzqFShQKLHymM82x7Q-56" value="0" style="shape=partialRectangle;html=1;whiteSpace=wrap;connectable=0;strokeColor=inherit;overflow=hidden;fillColor=none;top=0;left=0;bottom=0;right=0;pointerEvents=1;" vertex="1" parent="hPbzqFShQKLHymM82x7Q-41">
          <mxGeometry x="744" width="53" height="30" as="geometry">
            <mxRectangle width="53" height="30" as="alternateBounds" />
          </mxGeometry>
        </mxCell>
        <mxCell id="hPbzqFShQKLHymM82x7Q-57" value="0" style="shape=partialRectangle;html=1;whiteSpace=wrap;connectable=0;strokeColor=inherit;overflow=hidden;fillColor=none;top=0;left=0;bottom=0;right=0;pointerEvents=1;" vertex="1" parent="hPbzqFShQKLHymM82x7Q-41">
          <mxGeometry x="797" width="53" height="30" as="geometry">
            <mxRectangle width="53" height="30" as="alternateBounds" />
          </mxGeometry>
        </mxCell>
        <mxCell id="hPbzqFShQKLHymM82x7Q-58" value="&lt;font style=&quot;font-size: 24px;&quot;&gt;0&lt;/font&gt;" style="text;html=1;strokeColor=none;fillColor=none;align=center;verticalAlign=middle;whiteSpace=wrap;rounded=0;" vertex="1" parent="1">
          <mxGeometry x="690" y="801.75" width="30" height="42.5" as="geometry" />
        </mxCell>
        <mxCell id="hPbzqFShQKLHymM82x7Q-59" value="&lt;font style=&quot;font-size: 24px;&quot;&gt;2&lt;/font&gt;" style="text;html=1;strokeColor=none;fillColor=none;align=center;verticalAlign=middle;whiteSpace=wrap;rounded=0;" vertex="1" parent="1">
          <mxGeometry x="730" y="801.75" width="30" height="42.5" as="geometry" />
        </mxCell>
        <mxCell id="hPbzqFShQKLHymM82x7Q-60" value="&lt;font style=&quot;font-size: 24px;&quot;&gt;1&lt;/font&gt;" style="text;html=1;strokeColor=none;fillColor=none;align=center;verticalAlign=middle;whiteSpace=wrap;rounded=0;" vertex="1" parent="1">
          <mxGeometry x="770" y="801.75" width="30" height="42.5" as="geometry" />
        </mxCell>
        <mxCell id="hPbzqFShQKLHymM82x7Q-61" value="&lt;font style=&quot;font-size: 24px;&quot;&gt;4&lt;/font&gt;" style="text;html=1;strokeColor=none;fillColor=none;align=center;verticalAlign=middle;whiteSpace=wrap;rounded=0;" vertex="1" parent="1">
          <mxGeometry x="810" y="801.75" width="30" height="42.5" as="geometry" />
        </mxCell>
        <mxCell id="hPbzqFShQKLHymM82x7Q-62" value="&lt;font style=&quot;font-size: 24px;&quot;&gt;3&lt;/font&gt;" style="text;html=1;strokeColor=none;fillColor=none;align=center;verticalAlign=middle;whiteSpace=wrap;rounded=0;" vertex="1" parent="1">
          <mxGeometry x="855" y="801.75" width="30" height="42.5" as="geometry" />
        </mxCell>
        <mxCell id="hPbzqFShQKLHymM82x7Q-63" value="&lt;font style=&quot;font-size: 24px;&quot;&gt;5&lt;/font&gt;" style="text;html=1;strokeColor=none;fillColor=none;align=center;verticalAlign=middle;whiteSpace=wrap;rounded=0;" vertex="1" parent="1">
          <mxGeometry x="907" y="801.75" width="30" height="42.5" as="geometry" />
        </mxCell>
        <mxCell id="hPbzqFShQKLHymM82x7Q-64" value="&lt;font style=&quot;font-size: 24px;&quot;&gt;6&lt;/font&gt;" style="text;html=1;strokeColor=none;fillColor=none;align=center;verticalAlign=middle;whiteSpace=wrap;rounded=0;" vertex="1" parent="1">
          <mxGeometry x="944" y="801.75" width="30" height="42.5" as="geometry" />
        </mxCell>
        <mxCell id="hPbzqFShQKLHymM82x7Q-65" value="&lt;font style=&quot;font-size: 24px;&quot;&gt;7&lt;/font&gt;" style="text;html=1;strokeColor=none;fillColor=none;align=center;verticalAlign=middle;whiteSpace=wrap;rounded=0;" vertex="1" parent="1">
          <mxGeometry x="985" y="801.75" width="30" height="42.5" as="geometry" />
        </mxCell>
        <mxCell id="hPbzqFShQKLHymM82x7Q-66" value="&lt;font style=&quot;font-size: 24px;&quot;&gt;8&lt;/font&gt;" style="text;html=1;strokeColor=none;fillColor=none;align=center;verticalAlign=middle;whiteSpace=wrap;rounded=0;" vertex="1" parent="1">
          <mxGeometry x="1044" y="801.75" width="30" height="42.5" as="geometry" />
        </mxCell>
        <mxCell id="hPbzqFShQKLHymM82x7Q-67" value="&lt;font style=&quot;font-size: 24px;&quot;&gt;11&lt;/font&gt;" style="text;html=1;strokeColor=none;fillColor=none;align=center;verticalAlign=middle;whiteSpace=wrap;rounded=0;" vertex="1" parent="1">
          <mxGeometry x="1074" y="801.75" width="30" height="42.5" as="geometry" />
        </mxCell>
        <mxCell id="hPbzqFShQKLHymM82x7Q-68" value="&lt;font style=&quot;font-size: 24px;&quot;&gt;9&lt;/font&gt;" style="text;html=1;strokeColor=none;fillColor=none;align=center;verticalAlign=middle;whiteSpace=wrap;rounded=0;" vertex="1" parent="1">
          <mxGeometry x="1134" y="801.75" width="30" height="42.5" as="geometry" />
        </mxCell>
        <mxCell id="hPbzqFShQKLHymM82x7Q-69" value="&lt;font style=&quot;font-size: 24px;&quot;&gt;12&lt;/font&gt;" style="text;html=1;strokeColor=none;fillColor=none;align=center;verticalAlign=middle;whiteSpace=wrap;rounded=0;" vertex="1" parent="1">
          <mxGeometry x="1174" y="801.75" width="30" height="42.5" as="geometry" />
        </mxCell>
        <mxCell id="hPbzqFShQKLHymM82x7Q-71" value="" style="endArrow=classic;html=1;rounded=0;" edge="1" parent="1">
          <mxGeometry width="50" height="50" relative="1" as="geometry">
            <mxPoint x="700" y="860" as="sourcePoint" />
            <mxPoint x="590" y="900" as="targetPoint" />
          </mxGeometry>
        </mxCell>
        <mxCell id="hPbzqFShQKLHymM82x7Q-72" value="" style="endArrow=classic;html=1;rounded=0;" edge="1" parent="1">
          <mxGeometry width="50" height="50" relative="1" as="geometry">
            <mxPoint x="740" y="860" as="sourcePoint" />
            <mxPoint x="700" y="900" as="targetPoint" />
          </mxGeometry>
        </mxCell>
        <mxCell id="hPbzqFShQKLHymM82x7Q-73" value="" style="endArrow=classic;html=1;rounded=0;" edge="1" parent="1">
          <mxGeometry width="50" height="50" relative="1" as="geometry">
            <mxPoint x="780" y="860" as="sourcePoint" />
            <mxPoint x="640" y="900" as="targetPoint" />
          </mxGeometry>
        </mxCell>
        <mxCell id="hPbzqFShQKLHymM82x7Q-74" value="" style="endArrow=classic;html=1;rounded=0;" edge="1" parent="1">
          <mxGeometry width="50" height="50" relative="1" as="geometry">
            <mxPoint x="830" y="860" as="sourcePoint" />
            <mxPoint x="800" y="900" as="targetPoint" />
          </mxGeometry>
        </mxCell>
        <mxCell id="hPbzqFShQKLHymM82x7Q-75" value="" style="endArrow=classic;html=1;rounded=0;" edge="1" parent="1">
          <mxGeometry width="50" height="50" relative="1" as="geometry">
            <mxPoint x="870" y="860" as="sourcePoint" />
            <mxPoint x="750" y="900" as="targetPoint" />
          </mxGeometry>
        </mxCell>
        <mxCell id="hPbzqFShQKLHymM82x7Q-76" value="" style="endArrow=classic;html=1;rounded=0;" edge="1" parent="1">
          <mxGeometry width="50" height="50" relative="1" as="geometry">
            <mxPoint x="920" y="860" as="sourcePoint" />
            <mxPoint x="850" y="900" as="targetPoint" />
          </mxGeometry>
        </mxCell>
        <mxCell id="hPbzqFShQKLHymM82x7Q-77" value="" style="endArrow=classic;html=1;rounded=0;" edge="1" parent="1">
          <mxGeometry width="50" height="50" relative="1" as="geometry">
            <mxPoint x="960" y="860" as="sourcePoint" />
            <mxPoint x="910" y="900" as="targetPoint" />
          </mxGeometry>
        </mxCell>
        <mxCell id="hPbzqFShQKLHymM82x7Q-78" value="" style="endArrow=classic;html=1;rounded=0;" edge="1" parent="1">
          <mxGeometry width="50" height="50" relative="1" as="geometry">
            <mxPoint x="1000" y="860" as="sourcePoint" />
            <mxPoint x="960" y="900" as="targetPoint" />
          </mxGeometry>
        </mxCell>
        <mxCell id="hPbzqFShQKLHymM82x7Q-79" value="" style="endArrow=classic;html=1;rounded=0;" edge="1" parent="1">
          <mxGeometry width="50" height="50" relative="1" as="geometry">
            <mxPoint x="1060" y="860" as="sourcePoint" />
            <mxPoint x="1010" y="900" as="targetPoint" />
          </mxGeometry>
        </mxCell>
        <mxCell id="hPbzqFShQKLHymM82x7Q-80" value="" style="endArrow=classic;html=1;rounded=0;" edge="1" parent="1">
          <mxGeometry width="50" height="50" relative="1" as="geometry">
            <mxPoint x="1090" y="860" as="sourcePoint" />
            <mxPoint x="1170" y="900" as="targetPoint" />
          </mxGeometry>
        </mxCell>
        <mxCell id="hPbzqFShQKLHymM82x7Q-81" value="" style="endArrow=classic;html=1;rounded=0;" edge="1" parent="1">
          <mxGeometry width="50" height="50" relative="1" as="geometry">
            <mxPoint x="1150" y="860" as="sourcePoint" />
            <mxPoint x="1070" y="900" as="targetPoint" />
          </mxGeometry>
        </mxCell>
        <mxCell id="hPbzqFShQKLHymM82x7Q-82" value="" style="endArrow=classic;html=1;rounded=0;" edge="1" parent="1">
          <mxGeometry width="50" height="50" relative="1" as="geometry">
            <mxPoint x="1190" y="860" as="sourcePoint" />
            <mxPoint x="1220" y="900" as="targetPoint" />
          </mxGeometry>
        </mxCell>
        <mxCell id="hPbzqFShQKLHymM82x7Q-84" value="&lt;font style=&quot;font-size: 24px;&quot;&gt;Bit Vector&lt;/font&gt;" style="text;html=1;strokeColor=none;fillColor=none;align=center;verticalAlign=middle;whiteSpace=wrap;rounded=0;" vertex="1" parent="1">
          <mxGeometry x="410" y="899.38" width="160" height="51.25" as="geometry" />
        </mxCell>
        <mxCell id="hPbzqFShQKLHymM82x7Q-91" value="" style="endArrow=classic;html=1;rounded=0;" edge="1" parent="1">
          <mxGeometry width="50" height="50" relative="1" as="geometry">
            <mxPoint x="644" y="1058.25" as="sourcePoint" />
            <mxPoint x="1394" y="1058.25" as="targetPoint" />
          </mxGeometry>
        </mxCell>
        <mxCell id="hPbzqFShQKLHymM82x7Q-92" value="&lt;font style=&quot;font-size: 32px;&quot;&gt;Timeline&lt;/font&gt;" style="text;html=1;strokeColor=none;fillColor=none;align=center;verticalAlign=middle;whiteSpace=wrap;rounded=0;" vertex="1" parent="1">
          <mxGeometry x="514" y="1028.25" width="130" height="52.5" as="geometry" />
        </mxCell>
        <mxCell id="hPbzqFShQKLHymM82x7Q-93" value="" style="shape=ellipse;fillColor=#000000;strokeColor=none;html=1;sketch=0;" vertex="1" parent="1">
          <mxGeometry x="704" y="1052.5" width="10" height="10" as="geometry" />
        </mxCell>
        <mxCell id="hPbzqFShQKLHymM82x7Q-94" value="" style="shape=ellipse;fillColor=#000000;strokeColor=none;html=1;sketch=0;" vertex="1" parent="1">
          <mxGeometry x="744" y="1052.5" width="10" height="10" as="geometry" />
        </mxCell>
        <mxCell id="hPbzqFShQKLHymM82x7Q-95" value="" style="shape=ellipse;fillColor=#000000;strokeColor=none;html=1;sketch=0;" vertex="1" parent="1">
          <mxGeometry x="784" y="1052.5" width="10" height="10" as="geometry" />
        </mxCell>
        <mxCell id="hPbzqFShQKLHymM82x7Q-96" value="" style="shape=ellipse;fillColor=#000000;strokeColor=none;html=1;sketch=0;" vertex="1" parent="1">
          <mxGeometry x="829" y="1052.5" width="10" height="10" as="geometry" />
        </mxCell>
        <mxCell id="hPbzqFShQKLHymM82x7Q-97" value="" style="shape=ellipse;fillColor=#000000;strokeColor=none;html=1;sketch=0;" vertex="1" parent="1">
          <mxGeometry x="869" y="1052.5" width="10" height="10" as="geometry" />
        </mxCell>
        <mxCell id="hPbzqFShQKLHymM82x7Q-98" value="" style="shape=ellipse;fillColor=#000000;strokeColor=none;html=1;sketch=0;" vertex="1" parent="1">
          <mxGeometry x="921" y="1052.5" width="10" height="10" as="geometry" />
        </mxCell>
        <mxCell id="hPbzqFShQKLHymM82x7Q-99" value="" style="shape=ellipse;fillColor=#000000;strokeColor=none;html=1;sketch=0;" vertex="1" parent="1">
          <mxGeometry x="958" y="1052.5" width="10" height="10" as="geometry" />
        </mxCell>
        <mxCell id="hPbzqFShQKLHymM82x7Q-100" value="" style="shape=ellipse;fillColor=#000000;strokeColor=none;html=1;sketch=0;" vertex="1" parent="1">
          <mxGeometry x="999" y="1052.5" width="10" height="10" as="geometry" />
        </mxCell>
        <mxCell id="hPbzqFShQKLHymM82x7Q-101" value="" style="shape=ellipse;fillColor=#000000;strokeColor=none;html=1;sketch=0;" vertex="1" parent="1">
          <mxGeometry x="1058" y="1052.5" width="10" height="10" as="geometry" />
        </mxCell>
        <mxCell id="hPbzqFShQKLHymM82x7Q-102" value="" style="shape=ellipse;fillColor=#000000;strokeColor=none;html=1;sketch=0;" vertex="1" parent="1">
          <mxGeometry x="1088" y="1052.5" width="10" height="10" as="geometry" />
        </mxCell>
        <mxCell id="hPbzqFShQKLHymM82x7Q-103" value="" style="shape=ellipse;fillColor=#000000;strokeColor=none;html=1;sketch=0;" vertex="1" parent="1">
          <mxGeometry x="1148" y="1052.5" width="10" height="10" as="geometry" />
        </mxCell>
        <mxCell id="hPbzqFShQKLHymM82x7Q-104" value="" style="shape=ellipse;fillColor=#000000;strokeColor=none;html=1;sketch=0;" vertex="1" parent="1">
          <mxGeometry x="1188" y="1052.5" width="10" height="10" as="geometry" />
        </mxCell>
        <mxCell id="hPbzqFShQKLHymM82x7Q-105" value="" style="shape=ellipse;fillColor=#FF0000;strokeColor=none;html=1;sketch=0;" vertex="1" parent="1">
          <mxGeometry x="1304" y="1052.5" width="10" height="10" as="geometry" />
        </mxCell>
        <mxCell id="hPbzqFShQKLHymM82x7Q-106" value="" style="shape=table;startSize=0;container=1;collapsible=0;childLayout=tableLayout;" vertex="1" parent="1">
          <mxGeometry x="564" y="1118.25" width="850" height="30" as="geometry" />
        </mxCell>
        <mxCell id="hPbzqFShQKLHymM82x7Q-107" value="" style="shape=tableRow;horizontal=0;startSize=0;swimlaneHead=0;swimlaneBody=0;strokeColor=inherit;top=0;left=0;bottom=0;right=0;collapsible=0;dropTarget=0;fillColor=none;points=[[0,0.5],[1,0.5]];portConstraint=eastwest;" vertex="1" parent="hPbzqFShQKLHymM82x7Q-106">
          <mxGeometry width="850" height="30" as="geometry" />
        </mxCell>
        <mxCell id="hPbzqFShQKLHymM82x7Q-108" value="0 -&amp;gt; 1" style="shape=partialRectangle;html=1;whiteSpace=wrap;connectable=0;strokeColor=inherit;overflow=hidden;fillColor=none;top=0;left=0;bottom=0;right=0;pointerEvents=1;" vertex="1" parent="hPbzqFShQKLHymM82x7Q-107">
          <mxGeometry width="53" height="30" as="geometry">
            <mxRectangle width="53" height="30" as="alternateBounds" />
          </mxGeometry>
        </mxCell>
        <mxCell id="hPbzqFShQKLHymM82x7Q-109" value="0 -&amp;gt; 1" style="shape=partialRectangle;html=1;whiteSpace=wrap;connectable=0;strokeColor=inherit;overflow=hidden;fillColor=none;top=0;left=0;bottom=0;right=0;pointerEvents=1;" vertex="1" parent="hPbzqFShQKLHymM82x7Q-107">
          <mxGeometry x="53" width="53" height="30" as="geometry">
            <mxRectangle width="53" height="30" as="alternateBounds" />
          </mxGeometry>
        </mxCell>
        <mxCell id="hPbzqFShQKLHymM82x7Q-110" value="0 -&amp;gt; 1" style="shape=partialRectangle;html=1;whiteSpace=wrap;connectable=0;strokeColor=inherit;overflow=hidden;fillColor=none;top=0;left=0;bottom=0;right=0;pointerEvents=1;" vertex="1" parent="hPbzqFShQKLHymM82x7Q-107">
          <mxGeometry x="106" width="54" height="30" as="geometry">
            <mxRectangle width="54" height="30" as="alternateBounds" />
          </mxGeometry>
        </mxCell>
        <mxCell id="hPbzqFShQKLHymM82x7Q-111" value="0 -&amp;gt; 1" style="shape=partialRectangle;html=1;whiteSpace=wrap;connectable=0;strokeColor=inherit;overflow=hidden;fillColor=none;top=0;left=0;bottom=0;right=0;pointerEvents=1;" vertex="1" parent="hPbzqFShQKLHymM82x7Q-107">
          <mxGeometry x="160" width="53" height="30" as="geometry">
            <mxRectangle width="53" height="30" as="alternateBounds" />
          </mxGeometry>
        </mxCell>
        <mxCell id="hPbzqFShQKLHymM82x7Q-112" value="0 -&amp;gt; 1" style="shape=partialRectangle;html=1;whiteSpace=wrap;connectable=0;strokeColor=inherit;overflow=hidden;fillColor=none;top=0;left=0;bottom=0;right=0;pointerEvents=1;" vertex="1" parent="hPbzqFShQKLHymM82x7Q-107">
          <mxGeometry x="213" width="52" height="30" as="geometry">
            <mxRectangle width="52" height="30" as="alternateBounds" />
          </mxGeometry>
        </mxCell>
        <mxCell id="hPbzqFShQKLHymM82x7Q-113" value="0 -&amp;gt; 1" style="shape=partialRectangle;html=1;whiteSpace=wrap;connectable=0;strokeColor=inherit;overflow=hidden;fillColor=none;top=0;left=0;bottom=0;right=0;pointerEvents=1;" vertex="1" parent="hPbzqFShQKLHymM82x7Q-107">
          <mxGeometry x="265" width="54" height="30" as="geometry">
            <mxRectangle width="54" height="30" as="alternateBounds" />
          </mxGeometry>
        </mxCell>
        <mxCell id="hPbzqFShQKLHymM82x7Q-114" value="0 -&amp;gt; 1" style="shape=partialRectangle;html=1;whiteSpace=wrap;connectable=0;strokeColor=inherit;overflow=hidden;fillColor=none;top=0;left=0;bottom=0;right=0;pointerEvents=1;" vertex="1" parent="hPbzqFShQKLHymM82x7Q-107">
          <mxGeometry x="319" width="53" height="30" as="geometry">
            <mxRectangle width="53" height="30" as="alternateBounds" />
          </mxGeometry>
        </mxCell>
        <mxCell id="hPbzqFShQKLHymM82x7Q-115" value="0 -&amp;gt; 1" style="shape=partialRectangle;html=1;whiteSpace=wrap;connectable=0;strokeColor=inherit;overflow=hidden;fillColor=none;top=0;left=0;bottom=0;right=0;pointerEvents=1;" vertex="1" parent="hPbzqFShQKLHymM82x7Q-107">
          <mxGeometry x="372" width="53" height="30" as="geometry">
            <mxRectangle width="53" height="30" as="alternateBounds" />
          </mxGeometry>
        </mxCell>
        <mxCell id="hPbzqFShQKLHymM82x7Q-116" value="0 -&amp;gt; 1" style="shape=partialRectangle;html=1;whiteSpace=wrap;connectable=0;strokeColor=inherit;overflow=hidden;fillColor=none;top=0;left=0;bottom=0;right=0;pointerEvents=1;" vertex="1" parent="hPbzqFShQKLHymM82x7Q-107">
          <mxGeometry x="425" width="53" height="30" as="geometry">
            <mxRectangle width="53" height="30" as="alternateBounds" />
          </mxGeometry>
        </mxCell>
        <mxCell id="hPbzqFShQKLHymM82x7Q-117" value="0 -&amp;gt; 1" style="shape=partialRectangle;html=1;whiteSpace=wrap;connectable=0;strokeColor=inherit;overflow=hidden;fillColor=none;top=0;left=0;bottom=0;right=0;pointerEvents=1;" vertex="1" parent="hPbzqFShQKLHymM82x7Q-107">
          <mxGeometry x="478" width="53" height="30" as="geometry">
            <mxRectangle width="53" height="30" as="alternateBounds" />
          </mxGeometry>
        </mxCell>
        <mxCell id="hPbzqFShQKLHymM82x7Q-118" value="&lt;b&gt;&lt;font color=&quot;#ff0000&quot;&gt;0 -&amp;gt; 1&lt;/font&gt;&lt;/b&gt;" style="shape=partialRectangle;html=1;whiteSpace=wrap;connectable=0;strokeColor=inherit;overflow=hidden;fillColor=none;top=0;left=0;bottom=0;right=0;pointerEvents=1;" vertex="1" parent="hPbzqFShQKLHymM82x7Q-107">
          <mxGeometry x="531" width="54" height="30" as="geometry">
            <mxRectangle width="54" height="30" as="alternateBounds" />
          </mxGeometry>
        </mxCell>
        <mxCell id="hPbzqFShQKLHymM82x7Q-119" value="0 -&amp;gt; 1" style="shape=partialRectangle;html=1;whiteSpace=wrap;connectable=0;strokeColor=inherit;overflow=hidden;fillColor=none;top=0;left=0;bottom=0;right=0;pointerEvents=1;" vertex="1" parent="hPbzqFShQKLHymM82x7Q-107">
          <mxGeometry x="585" width="53" height="30" as="geometry">
            <mxRectangle width="53" height="30" as="alternateBounds" />
          </mxGeometry>
        </mxCell>
        <mxCell id="hPbzqFShQKLHymM82x7Q-120" value="0 -&amp;gt; 1" style="shape=partialRectangle;html=1;whiteSpace=wrap;connectable=0;strokeColor=inherit;overflow=hidden;fillColor=none;top=0;left=0;bottom=0;right=0;pointerEvents=1;" vertex="1" parent="hPbzqFShQKLHymM82x7Q-107">
          <mxGeometry x="638" width="52" height="30" as="geometry">
            <mxRectangle width="52" height="30" as="alternateBounds" />
          </mxGeometry>
        </mxCell>
        <mxCell id="hPbzqFShQKLHymM82x7Q-121" value="0" style="shape=partialRectangle;html=1;whiteSpace=wrap;connectable=0;strokeColor=inherit;overflow=hidden;fillColor=none;top=0;left=0;bottom=0;right=0;pointerEvents=1;" vertex="1" parent="hPbzqFShQKLHymM82x7Q-107">
          <mxGeometry x="690" width="54" height="30" as="geometry">
            <mxRectangle width="54" height="30" as="alternateBounds" />
          </mxGeometry>
        </mxCell>
        <mxCell id="hPbzqFShQKLHymM82x7Q-122" value="0" style="shape=partialRectangle;html=1;whiteSpace=wrap;connectable=0;strokeColor=inherit;overflow=hidden;fillColor=none;top=0;left=0;bottom=0;right=0;pointerEvents=1;" vertex="1" parent="hPbzqFShQKLHymM82x7Q-107">
          <mxGeometry x="744" width="53" height="30" as="geometry">
            <mxRectangle width="53" height="30" as="alternateBounds" />
          </mxGeometry>
        </mxCell>
        <mxCell id="hPbzqFShQKLHymM82x7Q-123" value="0" style="shape=partialRectangle;html=1;whiteSpace=wrap;connectable=0;strokeColor=inherit;overflow=hidden;fillColor=none;top=0;left=0;bottom=0;right=0;pointerEvents=1;" vertex="1" parent="hPbzqFShQKLHymM82x7Q-107">
          <mxGeometry x="797" width="53" height="30" as="geometry">
            <mxRectangle width="53" height="30" as="alternateBounds" />
          </mxGeometry>
        </mxCell>
        <mxCell id="hPbzqFShQKLHymM82x7Q-124" value="&lt;font style=&quot;font-size: 24px;&quot;&gt;0&lt;/font&gt;" style="text;html=1;strokeColor=none;fillColor=none;align=center;verticalAlign=middle;whiteSpace=wrap;rounded=0;" vertex="1" parent="1">
          <mxGeometry x="694" y="1010" width="30" height="42.5" as="geometry" />
        </mxCell>
        <mxCell id="hPbzqFShQKLHymM82x7Q-125" value="&lt;font style=&quot;font-size: 24px;&quot;&gt;2&lt;/font&gt;" style="text;html=1;strokeColor=none;fillColor=none;align=center;verticalAlign=middle;whiteSpace=wrap;rounded=0;" vertex="1" parent="1">
          <mxGeometry x="734" y="1010" width="30" height="42.5" as="geometry" />
        </mxCell>
        <mxCell id="hPbzqFShQKLHymM82x7Q-126" value="&lt;font style=&quot;font-size: 24px;&quot;&gt;1&lt;/font&gt;" style="text;html=1;strokeColor=none;fillColor=none;align=center;verticalAlign=middle;whiteSpace=wrap;rounded=0;" vertex="1" parent="1">
          <mxGeometry x="774" y="1010" width="30" height="42.5" as="geometry" />
        </mxCell>
        <mxCell id="hPbzqFShQKLHymM82x7Q-127" value="&lt;font style=&quot;font-size: 24px;&quot;&gt;4&lt;/font&gt;" style="text;html=1;strokeColor=none;fillColor=none;align=center;verticalAlign=middle;whiteSpace=wrap;rounded=0;" vertex="1" parent="1">
          <mxGeometry x="814" y="1010" width="30" height="42.5" as="geometry" />
        </mxCell>
        <mxCell id="hPbzqFShQKLHymM82x7Q-128" value="&lt;font style=&quot;font-size: 24px;&quot;&gt;3&lt;/font&gt;" style="text;html=1;strokeColor=none;fillColor=none;align=center;verticalAlign=middle;whiteSpace=wrap;rounded=0;" vertex="1" parent="1">
          <mxGeometry x="859" y="1010" width="30" height="42.5" as="geometry" />
        </mxCell>
        <mxCell id="hPbzqFShQKLHymM82x7Q-129" value="&lt;font style=&quot;font-size: 24px;&quot;&gt;5&lt;/font&gt;" style="text;html=1;strokeColor=none;fillColor=none;align=center;verticalAlign=middle;whiteSpace=wrap;rounded=0;" vertex="1" parent="1">
          <mxGeometry x="911" y="1010" width="30" height="42.5" as="geometry" />
        </mxCell>
        <mxCell id="hPbzqFShQKLHymM82x7Q-130" value="&lt;font style=&quot;font-size: 24px;&quot;&gt;6&lt;/font&gt;" style="text;html=1;strokeColor=none;fillColor=none;align=center;verticalAlign=middle;whiteSpace=wrap;rounded=0;" vertex="1" parent="1">
          <mxGeometry x="948" y="1010" width="30" height="42.5" as="geometry" />
        </mxCell>
        <mxCell id="hPbzqFShQKLHymM82x7Q-131" value="&lt;font style=&quot;font-size: 24px;&quot;&gt;7&lt;/font&gt;" style="text;html=1;strokeColor=none;fillColor=none;align=center;verticalAlign=middle;whiteSpace=wrap;rounded=0;" vertex="1" parent="1">
          <mxGeometry x="989" y="1010" width="30" height="42.5" as="geometry" />
        </mxCell>
        <mxCell id="hPbzqFShQKLHymM82x7Q-132" value="&lt;font style=&quot;font-size: 24px;&quot;&gt;8&lt;/font&gt;" style="text;html=1;strokeColor=none;fillColor=none;align=center;verticalAlign=middle;whiteSpace=wrap;rounded=0;" vertex="1" parent="1">
          <mxGeometry x="1048" y="1010" width="30" height="42.5" as="geometry" />
        </mxCell>
        <mxCell id="hPbzqFShQKLHymM82x7Q-133" value="&lt;font style=&quot;font-size: 24px;&quot;&gt;11&lt;/font&gt;" style="text;html=1;strokeColor=none;fillColor=none;align=center;verticalAlign=middle;whiteSpace=wrap;rounded=0;" vertex="1" parent="1">
          <mxGeometry x="1078" y="1010" width="30" height="42.5" as="geometry" />
        </mxCell>
        <mxCell id="hPbzqFShQKLHymM82x7Q-134" value="&lt;font style=&quot;font-size: 24px;&quot;&gt;9&lt;/font&gt;" style="text;html=1;strokeColor=none;fillColor=none;align=center;verticalAlign=middle;whiteSpace=wrap;rounded=0;" vertex="1" parent="1">
          <mxGeometry x="1138" y="1010" width="30" height="42.5" as="geometry" />
        </mxCell>
        <mxCell id="hPbzqFShQKLHymM82x7Q-135" value="&lt;font style=&quot;font-size: 24px;&quot;&gt;12&lt;/font&gt;" style="text;html=1;strokeColor=none;fillColor=none;align=center;verticalAlign=middle;whiteSpace=wrap;rounded=0;" vertex="1" parent="1">
          <mxGeometry x="1178" y="1010" width="30" height="42.5" as="geometry" />
        </mxCell>
        <mxCell id="hPbzqFShQKLHymM82x7Q-136" value="&lt;font style=&quot;font-size: 24px;&quot;&gt;10&lt;/font&gt;" style="text;html=1;strokeColor=none;fillColor=none;align=center;verticalAlign=middle;whiteSpace=wrap;rounded=0;" vertex="1" parent="1">
          <mxGeometry x="1294" y="1010" width="30" height="42.5" as="geometry" />
        </mxCell>
        <mxCell id="hPbzqFShQKLHymM82x7Q-137" value="" style="endArrow=classic;html=1;rounded=0;" edge="1" parent="1">
          <mxGeometry width="50" height="50" relative="1" as="geometry">
            <mxPoint x="704" y="1068.25" as="sourcePoint" />
            <mxPoint x="594" y="1108.25" as="targetPoint" />
          </mxGeometry>
        </mxCell>
        <mxCell id="hPbzqFShQKLHymM82x7Q-138" value="" style="endArrow=classic;html=1;rounded=0;" edge="1" parent="1">
          <mxGeometry width="50" height="50" relative="1" as="geometry">
            <mxPoint x="744" y="1068.25" as="sourcePoint" />
            <mxPoint x="704" y="1108.25" as="targetPoint" />
          </mxGeometry>
        </mxCell>
        <mxCell id="hPbzqFShQKLHymM82x7Q-139" value="" style="endArrow=classic;html=1;rounded=0;" edge="1" parent="1">
          <mxGeometry width="50" height="50" relative="1" as="geometry">
            <mxPoint x="784" y="1068.25" as="sourcePoint" />
            <mxPoint x="644" y="1108.25" as="targetPoint" />
          </mxGeometry>
        </mxCell>
        <mxCell id="hPbzqFShQKLHymM82x7Q-140" value="" style="endArrow=classic;html=1;rounded=0;" edge="1" parent="1">
          <mxGeometry width="50" height="50" relative="1" as="geometry">
            <mxPoint x="834" y="1068.25" as="sourcePoint" />
            <mxPoint x="804" y="1108.25" as="targetPoint" />
          </mxGeometry>
        </mxCell>
        <mxCell id="hPbzqFShQKLHymM82x7Q-141" value="" style="endArrow=classic;html=1;rounded=0;" edge="1" parent="1">
          <mxGeometry width="50" height="50" relative="1" as="geometry">
            <mxPoint x="874" y="1068.25" as="sourcePoint" />
            <mxPoint x="754" y="1108.25" as="targetPoint" />
          </mxGeometry>
        </mxCell>
        <mxCell id="hPbzqFShQKLHymM82x7Q-142" value="" style="endArrow=classic;html=1;rounded=0;" edge="1" parent="1">
          <mxGeometry width="50" height="50" relative="1" as="geometry">
            <mxPoint x="924" y="1068.25" as="sourcePoint" />
            <mxPoint x="854" y="1108.25" as="targetPoint" />
          </mxGeometry>
        </mxCell>
        <mxCell id="hPbzqFShQKLHymM82x7Q-143" value="" style="endArrow=classic;html=1;rounded=0;" edge="1" parent="1">
          <mxGeometry width="50" height="50" relative="1" as="geometry">
            <mxPoint x="964" y="1068.25" as="sourcePoint" />
            <mxPoint x="914" y="1108.25" as="targetPoint" />
          </mxGeometry>
        </mxCell>
        <mxCell id="hPbzqFShQKLHymM82x7Q-144" value="" style="endArrow=classic;html=1;rounded=0;" edge="1" parent="1">
          <mxGeometry width="50" height="50" relative="1" as="geometry">
            <mxPoint x="1004" y="1068.25" as="sourcePoint" />
            <mxPoint x="964" y="1108.25" as="targetPoint" />
          </mxGeometry>
        </mxCell>
        <mxCell id="hPbzqFShQKLHymM82x7Q-145" value="" style="endArrow=classic;html=1;rounded=0;" edge="1" parent="1">
          <mxGeometry width="50" height="50" relative="1" as="geometry">
            <mxPoint x="1064" y="1068.25" as="sourcePoint" />
            <mxPoint x="1014" y="1108.25" as="targetPoint" />
          </mxGeometry>
        </mxCell>
        <mxCell id="hPbzqFShQKLHymM82x7Q-146" value="" style="endArrow=classic;html=1;rounded=0;" edge="1" parent="1">
          <mxGeometry width="50" height="50" relative="1" as="geometry">
            <mxPoint x="1094" y="1068.25" as="sourcePoint" />
            <mxPoint x="1174" y="1108.25" as="targetPoint" />
          </mxGeometry>
        </mxCell>
        <mxCell id="hPbzqFShQKLHymM82x7Q-147" value="" style="endArrow=classic;html=1;rounded=0;" edge="1" parent="1">
          <mxGeometry width="50" height="50" relative="1" as="geometry">
            <mxPoint x="1154" y="1068.25" as="sourcePoint" />
            <mxPoint x="1074" y="1108.25" as="targetPoint" />
          </mxGeometry>
        </mxCell>
        <mxCell id="hPbzqFShQKLHymM82x7Q-148" value="" style="endArrow=classic;html=1;rounded=0;" edge="1" parent="1">
          <mxGeometry width="50" height="50" relative="1" as="geometry">
            <mxPoint x="1194" y="1068.25" as="sourcePoint" />
            <mxPoint x="1224" y="1108.25" as="targetPoint" />
          </mxGeometry>
        </mxCell>
        <mxCell id="hPbzqFShQKLHymM82x7Q-149" value="" style="endArrow=classic;html=1;rounded=0;" edge="1" parent="1">
          <mxGeometry width="50" height="50" relative="1" as="geometry">
            <mxPoint x="1304" y="1068.25" as="sourcePoint" />
            <mxPoint x="1124" y="1108.25" as="targetPoint" />
          </mxGeometry>
        </mxCell>
        <mxCell id="hPbzqFShQKLHymM82x7Q-150" value="&lt;font style=&quot;font-size: 24px;&quot;&gt;Bit Vector&lt;/font&gt;" style="text;html=1;strokeColor=none;fillColor=none;align=center;verticalAlign=middle;whiteSpace=wrap;rounded=0;" vertex="1" parent="1">
          <mxGeometry x="410" y="1107.63" width="160" height="51.25" as="geometry" />
        </mxCell>
        <mxCell id="hPbzqFShQKLHymM82x7Q-151" value="" style="endArrow=classic;html=1;rounded=0;" edge="1" parent="1">
          <mxGeometry width="50" height="50" relative="1" as="geometry">
            <mxPoint x="1124" y="1158.88" as="sourcePoint" />
            <mxPoint x="1274" y="1199.25" as="targetPoint" />
            <Array as="points">
              <mxPoint x="1124" y="1198.88" />
            </Array>
          </mxGeometry>
        </mxCell>
        <mxCell id="hPbzqFShQKLHymM82x7Q-152" value="" style="endArrow=classic;html=1;rounded=0;" edge="1" parent="1">
          <mxGeometry width="50" height="50" relative="1" as="geometry">
            <mxPoint x="1124" y="1198.25" as="sourcePoint" />
            <mxPoint x="1324" y="1238.25" as="targetPoint" />
            <Array as="points">
              <mxPoint x="1124" y="1238.25" />
            </Array>
          </mxGeometry>
        </mxCell>
        <mxCell id="hPbzqFShQKLHymM82x7Q-153" value="&lt;font style=&quot;font-size: 18px;&quot;&gt;+ L1 Distance&lt;/font&gt;" style="text;html=1;strokeColor=none;fillColor=none;align=center;verticalAlign=middle;whiteSpace=wrap;rounded=0;" vertex="1" parent="1">
          <mxGeometry x="1122.5" y="1168.25" width="141" height="29.37" as="geometry" />
        </mxCell>
        <mxCell id="hPbzqFShQKLHymM82x7Q-154" value="&lt;font style=&quot;font-size: 18px;&quot;&gt;+ L2 Distance&lt;/font&gt;" style="text;html=1;strokeColor=none;fillColor=none;align=center;verticalAlign=middle;whiteSpace=wrap;rounded=0;" vertex="1" parent="1">
          <mxGeometry x="1132.5" y="1201.62" width="121" height="40" as="geometry" />
        </mxCell>
        <mxCell id="hPbzqFShQKLHymM82x7Q-155" value="&lt;span style=&quot;font-size: 18px;&quot;&gt;Pf Req To L1&lt;/span&gt;" style="text;html=1;strokeColor=none;fillColor=none;align=center;verticalAlign=middle;whiteSpace=wrap;rounded=0;" vertex="1" parent="1">
          <mxGeometry x="1294" y="1188.25" width="141" height="29.37" as="geometry" />
        </mxCell>
        <mxCell id="hPbzqFShQKLHymM82x7Q-156" value="&lt;span style=&quot;font-size: 18px;&quot;&gt;Pf Req To L2&lt;/span&gt;" style="text;html=1;strokeColor=none;fillColor=none;align=center;verticalAlign=middle;whiteSpace=wrap;rounded=0;" vertex="1" parent="1">
          <mxGeometry x="1324" y="1228.25" width="141" height="29.37" as="geometry" />
        </mxCell>
        <mxCell id="hPbzqFShQKLHymM82x7Q-157" value="" style="endArrow=classic;html=1;rounded=0;" edge="1" parent="1">
          <mxGeometry width="50" height="50" relative="1" as="geometry">
            <mxPoint x="654.5" y="1348.25" as="sourcePoint" />
            <mxPoint x="1404.5" y="1348.25" as="targetPoint" />
          </mxGeometry>
        </mxCell>
        <mxCell id="hPbzqFShQKLHymM82x7Q-158" value="&lt;font style=&quot;font-size: 32px;&quot;&gt;Timeline&lt;/font&gt;" style="text;html=1;strokeColor=none;fillColor=none;align=center;verticalAlign=middle;whiteSpace=wrap;rounded=0;" vertex="1" parent="1">
          <mxGeometry x="524.5" y="1318.25" width="130" height="52.5" as="geometry" />
        </mxCell>
        <mxCell id="hPbzqFShQKLHymM82x7Q-159" value="" style="shape=ellipse;fillColor=#000000;strokeColor=none;html=1;sketch=0;" vertex="1" parent="1">
          <mxGeometry x="714.5" y="1342.5" width="10" height="10" as="geometry" />
        </mxCell>
        <mxCell id="hPbzqFShQKLHymM82x7Q-160" value="" style="shape=ellipse;fillColor=#000000;strokeColor=none;html=1;sketch=0;" vertex="1" parent="1">
          <mxGeometry x="754.5" y="1342.5" width="10" height="10" as="geometry" />
        </mxCell>
        <mxCell id="hPbzqFShQKLHymM82x7Q-161" value="" style="shape=ellipse;fillColor=#000000;strokeColor=none;html=1;sketch=0;" vertex="1" parent="1">
          <mxGeometry x="794.5" y="1342.5" width="10" height="10" as="geometry" />
        </mxCell>
        <mxCell id="hPbzqFShQKLHymM82x7Q-162" value="" style="shape=ellipse;fillColor=#000000;strokeColor=none;html=1;sketch=0;" vertex="1" parent="1">
          <mxGeometry x="839.5" y="1342.5" width="10" height="10" as="geometry" />
        </mxCell>
        <mxCell id="hPbzqFShQKLHymM82x7Q-163" value="" style="shape=ellipse;fillColor=#000000;strokeColor=none;html=1;sketch=0;" vertex="1" parent="1">
          <mxGeometry x="879.5" y="1342.5" width="10" height="10" as="geometry" />
        </mxCell>
        <mxCell id="hPbzqFShQKLHymM82x7Q-164" value="" style="shape=ellipse;fillColor=#000000;strokeColor=none;html=1;sketch=0;" vertex="1" parent="1">
          <mxGeometry x="931.5" y="1342.5" width="10" height="10" as="geometry" />
        </mxCell>
        <mxCell id="hPbzqFShQKLHymM82x7Q-165" value="" style="shape=ellipse;fillColor=#000000;strokeColor=none;html=1;sketch=0;" vertex="1" parent="1">
          <mxGeometry x="968.5" y="1342.5" width="10" height="10" as="geometry" />
        </mxCell>
        <mxCell id="hPbzqFShQKLHymM82x7Q-166" value="" style="shape=ellipse;fillColor=#000000;strokeColor=none;html=1;sketch=0;" vertex="1" parent="1">
          <mxGeometry x="1009.5" y="1342.5" width="10" height="10" as="geometry" />
        </mxCell>
        <mxCell id="hPbzqFShQKLHymM82x7Q-167" value="" style="shape=ellipse;fillColor=#000000;strokeColor=none;html=1;sketch=0;" vertex="1" parent="1">
          <mxGeometry x="1068.5" y="1342.5" width="10" height="10" as="geometry" />
        </mxCell>
        <mxCell id="hPbzqFShQKLHymM82x7Q-168" value="" style="shape=ellipse;fillColor=#000000;strokeColor=none;html=1;sketch=0;" vertex="1" parent="1">
          <mxGeometry x="1098.5" y="1342.5" width="10" height="10" as="geometry" />
        </mxCell>
        <mxCell id="hPbzqFShQKLHymM82x7Q-169" value="" style="shape=ellipse;fillColor=#000000;strokeColor=none;html=1;sketch=0;" vertex="1" parent="1">
          <mxGeometry x="1158.5" y="1342.5" width="10" height="10" as="geometry" />
        </mxCell>
        <mxCell id="hPbzqFShQKLHymM82x7Q-170" value="" style="shape=ellipse;fillColor=#000000;strokeColor=none;html=1;sketch=0;" vertex="1" parent="1">
          <mxGeometry x="1198.5" y="1342.5" width="10" height="10" as="geometry" />
        </mxCell>
        <mxCell id="hPbzqFShQKLHymM82x7Q-171" value="" style="shape=ellipse;fillColor=#FF0000;strokeColor=none;html=1;sketch=0;" vertex="1" parent="1">
          <mxGeometry x="1314.5" y="1342.5" width="10" height="10" as="geometry" />
        </mxCell>
        <mxCell id="hPbzqFShQKLHymM82x7Q-172" value="" style="shape=table;startSize=0;container=1;collapsible=0;childLayout=tableLayout;" vertex="1" parent="1">
          <mxGeometry x="574.5" y="1408.25" width="850" height="30" as="geometry" />
        </mxCell>
        <mxCell id="hPbzqFShQKLHymM82x7Q-173" value="" style="shape=tableRow;horizontal=0;startSize=0;swimlaneHead=0;swimlaneBody=0;strokeColor=inherit;top=0;left=0;bottom=0;right=0;collapsible=0;dropTarget=0;fillColor=none;points=[[0,0.5],[1,0.5]];portConstraint=eastwest;" vertex="1" parent="hPbzqFShQKLHymM82x7Q-172">
          <mxGeometry width="850" height="30" as="geometry" />
        </mxCell>
        <mxCell id="hPbzqFShQKLHymM82x7Q-174" value="0 -&amp;gt; 1" style="shape=partialRectangle;html=1;whiteSpace=wrap;connectable=0;strokeColor=inherit;overflow=hidden;fillColor=none;top=0;left=0;bottom=0;right=0;pointerEvents=1;" vertex="1" parent="hPbzqFShQKLHymM82x7Q-173">
          <mxGeometry width="53" height="30" as="geometry">
            <mxRectangle width="53" height="30" as="alternateBounds" />
          </mxGeometry>
        </mxCell>
        <mxCell id="hPbzqFShQKLHymM82x7Q-175" value="0 -&amp;gt; 1" style="shape=partialRectangle;html=1;whiteSpace=wrap;connectable=0;strokeColor=inherit;overflow=hidden;fillColor=none;top=0;left=0;bottom=0;right=0;pointerEvents=1;" vertex="1" parent="hPbzqFShQKLHymM82x7Q-173">
          <mxGeometry x="53" width="53" height="30" as="geometry">
            <mxRectangle width="53" height="30" as="alternateBounds" />
          </mxGeometry>
        </mxCell>
        <mxCell id="hPbzqFShQKLHymM82x7Q-176" value="0 -&amp;gt; 1" style="shape=partialRectangle;html=1;whiteSpace=wrap;connectable=0;strokeColor=inherit;overflow=hidden;fillColor=none;top=0;left=0;bottom=0;right=0;pointerEvents=1;" vertex="1" parent="hPbzqFShQKLHymM82x7Q-173">
          <mxGeometry x="106" width="54" height="30" as="geometry">
            <mxRectangle width="54" height="30" as="alternateBounds" />
          </mxGeometry>
        </mxCell>
        <mxCell id="hPbzqFShQKLHymM82x7Q-177" value="0 -&amp;gt; 1" style="shape=partialRectangle;html=1;whiteSpace=wrap;connectable=0;strokeColor=inherit;overflow=hidden;fillColor=none;top=0;left=0;bottom=0;right=0;pointerEvents=1;" vertex="1" parent="hPbzqFShQKLHymM82x7Q-173">
          <mxGeometry x="160" width="53" height="30" as="geometry">
            <mxRectangle width="53" height="30" as="alternateBounds" />
          </mxGeometry>
        </mxCell>
        <mxCell id="hPbzqFShQKLHymM82x7Q-178" value="0 -&amp;gt; 1" style="shape=partialRectangle;html=1;whiteSpace=wrap;connectable=0;strokeColor=inherit;overflow=hidden;fillColor=none;top=0;left=0;bottom=0;right=0;pointerEvents=1;" vertex="1" parent="hPbzqFShQKLHymM82x7Q-173">
          <mxGeometry x="213" width="52" height="30" as="geometry">
            <mxRectangle width="52" height="30" as="alternateBounds" />
          </mxGeometry>
        </mxCell>
        <mxCell id="hPbzqFShQKLHymM82x7Q-179" value="0 -&amp;gt; 1" style="shape=partialRectangle;html=1;whiteSpace=wrap;connectable=0;strokeColor=inherit;overflow=hidden;fillColor=none;top=0;left=0;bottom=0;right=0;pointerEvents=1;" vertex="1" parent="hPbzqFShQKLHymM82x7Q-173">
          <mxGeometry x="265" width="54" height="30" as="geometry">
            <mxRectangle width="54" height="30" as="alternateBounds" />
          </mxGeometry>
        </mxCell>
        <mxCell id="hPbzqFShQKLHymM82x7Q-180" value="0 -&amp;gt; 1" style="shape=partialRectangle;html=1;whiteSpace=wrap;connectable=0;strokeColor=inherit;overflow=hidden;fillColor=none;top=0;left=0;bottom=0;right=0;pointerEvents=1;" vertex="1" parent="hPbzqFShQKLHymM82x7Q-173">
          <mxGeometry x="319" width="53" height="30" as="geometry">
            <mxRectangle width="53" height="30" as="alternateBounds" />
          </mxGeometry>
        </mxCell>
        <mxCell id="hPbzqFShQKLHymM82x7Q-181" value="0 -&amp;gt; 1" style="shape=partialRectangle;html=1;whiteSpace=wrap;connectable=0;strokeColor=inherit;overflow=hidden;fillColor=none;top=0;left=0;bottom=0;right=0;pointerEvents=1;" vertex="1" parent="hPbzqFShQKLHymM82x7Q-173">
          <mxGeometry x="372" width="53" height="30" as="geometry">
            <mxRectangle width="53" height="30" as="alternateBounds" />
          </mxGeometry>
        </mxCell>
        <mxCell id="hPbzqFShQKLHymM82x7Q-182" value="0 -&amp;gt; 1" style="shape=partialRectangle;html=1;whiteSpace=wrap;connectable=0;strokeColor=inherit;overflow=hidden;fillColor=none;top=0;left=0;bottom=0;right=0;pointerEvents=1;" vertex="1" parent="hPbzqFShQKLHymM82x7Q-173">
          <mxGeometry x="425" width="53" height="30" as="geometry">
            <mxRectangle width="53" height="30" as="alternateBounds" />
          </mxGeometry>
        </mxCell>
        <mxCell id="hPbzqFShQKLHymM82x7Q-183" value="0 -&amp;gt; 1" style="shape=partialRectangle;html=1;whiteSpace=wrap;connectable=0;strokeColor=inherit;overflow=hidden;fillColor=none;top=0;left=0;bottom=0;right=0;pointerEvents=1;" vertex="1" parent="hPbzqFShQKLHymM82x7Q-173">
          <mxGeometry x="478" width="53" height="30" as="geometry">
            <mxRectangle width="53" height="30" as="alternateBounds" />
          </mxGeometry>
        </mxCell>
        <mxCell id="hPbzqFShQKLHymM82x7Q-184" value="&lt;b&gt;0 -&amp;gt; 1&lt;/b&gt;" style="shape=partialRectangle;html=1;whiteSpace=wrap;connectable=0;strokeColor=inherit;overflow=hidden;fillColor=none;top=0;left=0;bottom=0;right=0;pointerEvents=1;" vertex="1" parent="hPbzqFShQKLHymM82x7Q-173">
          <mxGeometry x="531" width="54" height="30" as="geometry">
            <mxRectangle width="54" height="30" as="alternateBounds" />
          </mxGeometry>
        </mxCell>
        <mxCell id="hPbzqFShQKLHymM82x7Q-185" value="0 -&amp;gt; 1" style="shape=partialRectangle;html=1;whiteSpace=wrap;connectable=0;strokeColor=inherit;overflow=hidden;fillColor=none;top=0;left=0;bottom=0;right=0;pointerEvents=1;" vertex="1" parent="hPbzqFShQKLHymM82x7Q-173">
          <mxGeometry x="585" width="53" height="30" as="geometry">
            <mxRectangle width="53" height="30" as="alternateBounds" />
          </mxGeometry>
        </mxCell>
        <mxCell id="hPbzqFShQKLHymM82x7Q-186" value="0 -&amp;gt; 1" style="shape=partialRectangle;html=1;whiteSpace=wrap;connectable=0;strokeColor=inherit;overflow=hidden;fillColor=none;top=0;left=0;bottom=0;right=0;pointerEvents=1;" vertex="1" parent="hPbzqFShQKLHymM82x7Q-173">
          <mxGeometry x="638" width="52" height="30" as="geometry">
            <mxRectangle width="52" height="30" as="alternateBounds" />
          </mxGeometry>
        </mxCell>
        <mxCell id="hPbzqFShQKLHymM82x7Q-187" value="&lt;b style=&quot;border-color: var(--border-color);&quot;&gt;&lt;font color=&quot;#ff0000&quot;&gt;0 -&amp;gt; 1&lt;/font&gt;&lt;/b&gt;" style="shape=partialRectangle;html=1;whiteSpace=wrap;connectable=0;strokeColor=inherit;overflow=hidden;fillColor=none;top=0;left=0;bottom=0;right=0;pointerEvents=1;" vertex="1" parent="hPbzqFShQKLHymM82x7Q-173">
          <mxGeometry x="690" width="54" height="30" as="geometry">
            <mxRectangle width="54" height="30" as="alternateBounds" />
          </mxGeometry>
        </mxCell>
        <mxCell id="hPbzqFShQKLHymM82x7Q-188" value="0" style="shape=partialRectangle;html=1;whiteSpace=wrap;connectable=0;strokeColor=inherit;overflow=hidden;fillColor=none;top=0;left=0;bottom=0;right=0;pointerEvents=1;" vertex="1" parent="hPbzqFShQKLHymM82x7Q-173">
          <mxGeometry x="744" width="53" height="30" as="geometry">
            <mxRectangle width="53" height="30" as="alternateBounds" />
          </mxGeometry>
        </mxCell>
        <mxCell id="hPbzqFShQKLHymM82x7Q-189" value="0" style="shape=partialRectangle;html=1;whiteSpace=wrap;connectable=0;strokeColor=inherit;overflow=hidden;fillColor=none;top=0;left=0;bottom=0;right=0;pointerEvents=1;" vertex="1" parent="hPbzqFShQKLHymM82x7Q-173">
          <mxGeometry x="797" width="53" height="30" as="geometry">
            <mxRectangle width="53" height="30" as="alternateBounds" />
          </mxGeometry>
        </mxCell>
        <mxCell id="hPbzqFShQKLHymM82x7Q-190" value="&lt;font style=&quot;font-size: 24px;&quot;&gt;0&lt;/font&gt;" style="text;html=1;strokeColor=none;fillColor=none;align=center;verticalAlign=middle;whiteSpace=wrap;rounded=0;" vertex="1" parent="1">
          <mxGeometry x="704.5" y="1300" width="30" height="42.5" as="geometry" />
        </mxCell>
        <mxCell id="hPbzqFShQKLHymM82x7Q-191" value="&lt;font style=&quot;font-size: 24px;&quot;&gt;2&lt;/font&gt;" style="text;html=1;strokeColor=none;fillColor=none;align=center;verticalAlign=middle;whiteSpace=wrap;rounded=0;" vertex="1" parent="1">
          <mxGeometry x="744.5" y="1300" width="30" height="42.5" as="geometry" />
        </mxCell>
        <mxCell id="hPbzqFShQKLHymM82x7Q-192" value="&lt;font style=&quot;font-size: 24px;&quot;&gt;1&lt;/font&gt;" style="text;html=1;strokeColor=none;fillColor=none;align=center;verticalAlign=middle;whiteSpace=wrap;rounded=0;" vertex="1" parent="1">
          <mxGeometry x="784.5" y="1300" width="30" height="42.5" as="geometry" />
        </mxCell>
        <mxCell id="hPbzqFShQKLHymM82x7Q-193" value="&lt;font style=&quot;font-size: 24px;&quot;&gt;4&lt;/font&gt;" style="text;html=1;strokeColor=none;fillColor=none;align=center;verticalAlign=middle;whiteSpace=wrap;rounded=0;" vertex="1" parent="1">
          <mxGeometry x="824.5" y="1300" width="30" height="42.5" as="geometry" />
        </mxCell>
        <mxCell id="hPbzqFShQKLHymM82x7Q-194" value="&lt;font style=&quot;font-size: 24px;&quot;&gt;3&lt;/font&gt;" style="text;html=1;strokeColor=none;fillColor=none;align=center;verticalAlign=middle;whiteSpace=wrap;rounded=0;" vertex="1" parent="1">
          <mxGeometry x="869.5" y="1300" width="30" height="42.5" as="geometry" />
        </mxCell>
        <mxCell id="hPbzqFShQKLHymM82x7Q-195" value="&lt;font style=&quot;font-size: 24px;&quot;&gt;5&lt;/font&gt;" style="text;html=1;strokeColor=none;fillColor=none;align=center;verticalAlign=middle;whiteSpace=wrap;rounded=0;" vertex="1" parent="1">
          <mxGeometry x="921.5" y="1300" width="30" height="42.5" as="geometry" />
        </mxCell>
        <mxCell id="hPbzqFShQKLHymM82x7Q-196" value="&lt;font style=&quot;font-size: 24px;&quot;&gt;6&lt;/font&gt;" style="text;html=1;strokeColor=none;fillColor=none;align=center;verticalAlign=middle;whiteSpace=wrap;rounded=0;" vertex="1" parent="1">
          <mxGeometry x="958.5" y="1300" width="30" height="42.5" as="geometry" />
        </mxCell>
        <mxCell id="hPbzqFShQKLHymM82x7Q-197" value="&lt;font style=&quot;font-size: 24px;&quot;&gt;7&lt;/font&gt;" style="text;html=1;strokeColor=none;fillColor=none;align=center;verticalAlign=middle;whiteSpace=wrap;rounded=0;" vertex="1" parent="1">
          <mxGeometry x="999.5" y="1300" width="30" height="42.5" as="geometry" />
        </mxCell>
        <mxCell id="hPbzqFShQKLHymM82x7Q-198" value="&lt;font style=&quot;font-size: 24px;&quot;&gt;8&lt;/font&gt;" style="text;html=1;strokeColor=none;fillColor=none;align=center;verticalAlign=middle;whiteSpace=wrap;rounded=0;" vertex="1" parent="1">
          <mxGeometry x="1058.5" y="1300" width="30" height="42.5" as="geometry" />
        </mxCell>
        <mxCell id="hPbzqFShQKLHymM82x7Q-199" value="&lt;font style=&quot;font-size: 24px;&quot;&gt;11&lt;/font&gt;" style="text;html=1;strokeColor=none;fillColor=none;align=center;verticalAlign=middle;whiteSpace=wrap;rounded=0;" vertex="1" parent="1">
          <mxGeometry x="1088.5" y="1300" width="30" height="42.5" as="geometry" />
        </mxCell>
        <mxCell id="hPbzqFShQKLHymM82x7Q-200" value="&lt;font style=&quot;font-size: 24px;&quot;&gt;9&lt;/font&gt;" style="text;html=1;strokeColor=none;fillColor=none;align=center;verticalAlign=middle;whiteSpace=wrap;rounded=0;" vertex="1" parent="1">
          <mxGeometry x="1148.5" y="1300" width="30" height="42.5" as="geometry" />
        </mxCell>
        <mxCell id="hPbzqFShQKLHymM82x7Q-201" value="&lt;font style=&quot;font-size: 24px;&quot;&gt;12&lt;/font&gt;" style="text;html=1;strokeColor=none;fillColor=none;align=center;verticalAlign=middle;whiteSpace=wrap;rounded=0;" vertex="1" parent="1">
          <mxGeometry x="1188.5" y="1300" width="30" height="42.5" as="geometry" />
        </mxCell>
        <mxCell id="hPbzqFShQKLHymM82x7Q-202" value="&lt;font style=&quot;font-size: 24px;&quot;&gt;10&lt;/font&gt;" style="text;html=1;strokeColor=none;fillColor=none;align=center;verticalAlign=middle;whiteSpace=wrap;rounded=0;" vertex="1" parent="1">
          <mxGeometry x="1304.5" y="1300" width="30" height="42.5" as="geometry" />
        </mxCell>
        <mxCell id="hPbzqFShQKLHymM82x7Q-203" value="" style="endArrow=classic;html=1;rounded=0;" edge="1" parent="1">
          <mxGeometry width="50" height="50" relative="1" as="geometry">
            <mxPoint x="714.5" y="1358.25" as="sourcePoint" />
            <mxPoint x="604.5" y="1398.25" as="targetPoint" />
          </mxGeometry>
        </mxCell>
        <mxCell id="hPbzqFShQKLHymM82x7Q-204" value="" style="endArrow=classic;html=1;rounded=0;" edge="1" parent="1">
          <mxGeometry width="50" height="50" relative="1" as="geometry">
            <mxPoint x="754.5" y="1358.25" as="sourcePoint" />
            <mxPoint x="714.5" y="1398.25" as="targetPoint" />
          </mxGeometry>
        </mxCell>
        <mxCell id="hPbzqFShQKLHymM82x7Q-205" value="" style="endArrow=classic;html=1;rounded=0;" edge="1" parent="1">
          <mxGeometry width="50" height="50" relative="1" as="geometry">
            <mxPoint x="794.5" y="1358.25" as="sourcePoint" />
            <mxPoint x="654.5" y="1398.25" as="targetPoint" />
          </mxGeometry>
        </mxCell>
        <mxCell id="hPbzqFShQKLHymM82x7Q-206" value="" style="endArrow=classic;html=1;rounded=0;" edge="1" parent="1">
          <mxGeometry width="50" height="50" relative="1" as="geometry">
            <mxPoint x="844.5" y="1358.25" as="sourcePoint" />
            <mxPoint x="814.5" y="1398.25" as="targetPoint" />
          </mxGeometry>
        </mxCell>
        <mxCell id="hPbzqFShQKLHymM82x7Q-207" value="" style="endArrow=classic;html=1;rounded=0;" edge="1" parent="1">
          <mxGeometry width="50" height="50" relative="1" as="geometry">
            <mxPoint x="884.5" y="1358.25" as="sourcePoint" />
            <mxPoint x="764.5" y="1398.25" as="targetPoint" />
          </mxGeometry>
        </mxCell>
        <mxCell id="hPbzqFShQKLHymM82x7Q-208" value="" style="endArrow=classic;html=1;rounded=0;" edge="1" parent="1">
          <mxGeometry width="50" height="50" relative="1" as="geometry">
            <mxPoint x="934.5" y="1358.25" as="sourcePoint" />
            <mxPoint x="864.5" y="1398.25" as="targetPoint" />
          </mxGeometry>
        </mxCell>
        <mxCell id="hPbzqFShQKLHymM82x7Q-209" value="" style="endArrow=classic;html=1;rounded=0;" edge="1" parent="1">
          <mxGeometry width="50" height="50" relative="1" as="geometry">
            <mxPoint x="974.5" y="1358.25" as="sourcePoint" />
            <mxPoint x="924.5" y="1398.25" as="targetPoint" />
          </mxGeometry>
        </mxCell>
        <mxCell id="hPbzqFShQKLHymM82x7Q-210" value="" style="endArrow=classic;html=1;rounded=0;" edge="1" parent="1">
          <mxGeometry width="50" height="50" relative="1" as="geometry">
            <mxPoint x="1014.5" y="1358.25" as="sourcePoint" />
            <mxPoint x="974.5" y="1398.25" as="targetPoint" />
          </mxGeometry>
        </mxCell>
        <mxCell id="hPbzqFShQKLHymM82x7Q-211" value="" style="endArrow=classic;html=1;rounded=0;" edge="1" parent="1">
          <mxGeometry width="50" height="50" relative="1" as="geometry">
            <mxPoint x="1074.5" y="1358.25" as="sourcePoint" />
            <mxPoint x="1024.5" y="1398.25" as="targetPoint" />
          </mxGeometry>
        </mxCell>
        <mxCell id="hPbzqFShQKLHymM82x7Q-212" value="" style="endArrow=classic;html=1;rounded=0;" edge="1" parent="1">
          <mxGeometry width="50" height="50" relative="1" as="geometry">
            <mxPoint x="1104.5" y="1358.25" as="sourcePoint" />
            <mxPoint x="1184.5" y="1398.25" as="targetPoint" />
          </mxGeometry>
        </mxCell>
        <mxCell id="hPbzqFShQKLHymM82x7Q-213" value="" style="endArrow=classic;html=1;rounded=0;" edge="1" parent="1">
          <mxGeometry width="50" height="50" relative="1" as="geometry">
            <mxPoint x="1164.5" y="1358.25" as="sourcePoint" />
            <mxPoint x="1084.5" y="1398.25" as="targetPoint" />
          </mxGeometry>
        </mxCell>
        <mxCell id="hPbzqFShQKLHymM82x7Q-214" value="" style="endArrow=classic;html=1;rounded=0;" edge="1" parent="1">
          <mxGeometry width="50" height="50" relative="1" as="geometry">
            <mxPoint x="1204.5" y="1358.25" as="sourcePoint" />
            <mxPoint x="1234.5" y="1398.25" as="targetPoint" />
          </mxGeometry>
        </mxCell>
        <mxCell id="hPbzqFShQKLHymM82x7Q-215" value="" style="endArrow=classic;html=1;rounded=0;" edge="1" parent="1">
          <mxGeometry width="50" height="50" relative="1" as="geometry">
            <mxPoint x="1314.5" y="1358.25" as="sourcePoint" />
            <mxPoint x="1134.5" y="1398.25" as="targetPoint" />
          </mxGeometry>
        </mxCell>
        <mxCell id="hPbzqFShQKLHymM82x7Q-216" value="" style="endArrow=classic;html=1;rounded=0;" edge="1" parent="1">
          <mxGeometry width="50" height="50" relative="1" as="geometry">
            <mxPoint x="1295.5" y="1448.88" as="sourcePoint" />
            <mxPoint x="1445.5" y="1489.25" as="targetPoint" />
            <Array as="points">
              <mxPoint x="1295.5" y="1488.88" />
            </Array>
          </mxGeometry>
        </mxCell>
        <mxCell id="hPbzqFShQKLHymM82x7Q-217" value="" style="endArrow=classic;html=1;rounded=0;" edge="1" parent="1">
          <mxGeometry width="50" height="50" relative="1" as="geometry">
            <mxPoint x="1295.5" y="1488.25" as="sourcePoint" />
            <mxPoint x="1495.5" y="1528.25" as="targetPoint" />
            <Array as="points">
              <mxPoint x="1295.5" y="1528.25" />
            </Array>
          </mxGeometry>
        </mxCell>
        <mxCell id="hPbzqFShQKLHymM82x7Q-218" value="&lt;font style=&quot;font-size: 18px;&quot;&gt;+ L1 Distance&lt;/font&gt;" style="text;html=1;strokeColor=none;fillColor=none;align=center;verticalAlign=middle;whiteSpace=wrap;rounded=0;" vertex="1" parent="1">
          <mxGeometry x="1294" y="1458.25" width="141" height="29.37" as="geometry" />
        </mxCell>
        <mxCell id="hPbzqFShQKLHymM82x7Q-219" value="&lt;font style=&quot;font-size: 18px;&quot;&gt;+ L2 Distance&lt;/font&gt;" style="text;html=1;strokeColor=none;fillColor=none;align=center;verticalAlign=middle;whiteSpace=wrap;rounded=0;" vertex="1" parent="1">
          <mxGeometry x="1304" y="1491.62" width="121" height="40" as="geometry" />
        </mxCell>
        <mxCell id="hPbzqFShQKLHymM82x7Q-220" value="&lt;span style=&quot;font-size: 18px;&quot;&gt;Pf Req To L1&lt;/span&gt;" style="text;html=1;strokeColor=none;fillColor=none;align=center;verticalAlign=middle;whiteSpace=wrap;rounded=0;" vertex="1" parent="1">
          <mxGeometry x="1465.5" y="1478.25" width="141" height="29.37" as="geometry" />
        </mxCell>
        <mxCell id="hPbzqFShQKLHymM82x7Q-221" value="&lt;span style=&quot;font-size: 18px;&quot;&gt;Pf Req To L2&lt;/span&gt;" style="text;html=1;strokeColor=none;fillColor=none;align=center;verticalAlign=middle;whiteSpace=wrap;rounded=0;" vertex="1" parent="1">
          <mxGeometry x="1495.5" y="1518.25" width="141" height="29.37" as="geometry" />
        </mxCell>
        <mxCell id="hPbzqFShQKLHymM82x7Q-222" value="" style="shape=ellipse;fillColor=#FF0000;strokeColor=none;html=1;sketch=0;" vertex="1" parent="1">
          <mxGeometry x="1370" y="1343.5" width="10" height="10" as="geometry" />
        </mxCell>
        <mxCell id="hPbzqFShQKLHymM82x7Q-223" value="&lt;font style=&quot;font-size: 24px;&quot;&gt;13&lt;/font&gt;" style="text;html=1;strokeColor=none;fillColor=none;align=center;verticalAlign=middle;whiteSpace=wrap;rounded=0;" vertex="1" parent="1">
          <mxGeometry x="1360" y="1300" width="30" height="42.5" as="geometry" />
        </mxCell>
        <mxCell id="hPbzqFShQKLHymM82x7Q-224" value="" style="endArrow=classic;html=1;rounded=0;" edge="1" parent="1">
          <mxGeometry width="50" height="50" relative="1" as="geometry">
            <mxPoint x="1370" y="1360" as="sourcePoint" />
            <mxPoint x="1290" y="1400" as="targetPoint" />
          </mxGeometry>
        </mxCell>
        <mxCell id="hPbzqFShQKLHymM82x7Q-225" value="&lt;font style=&quot;font-size: 24px;&quot;&gt;active: False&lt;/font&gt;" style="text;html=1;strokeColor=none;fillColor=none;align=center;verticalAlign=middle;whiteSpace=wrap;rounded=0;" vertex="1" parent="1">
          <mxGeometry x="1424.5" y="899.38" width="160" height="51.25" as="geometry" />
        </mxCell>
        <mxCell id="hPbzqFShQKLHymM82x7Q-226" value="&lt;font style=&quot;font-size: 24px;&quot;&gt;active: &lt;b&gt;&lt;font color=&quot;#ff0000&quot;&gt;True&lt;/font&gt;&lt;/b&gt;&lt;/font&gt;" style="text;html=1;strokeColor=none;fillColor=none;align=center;verticalAlign=middle;whiteSpace=wrap;rounded=0;" vertex="1" parent="1">
          <mxGeometry x="1435" y="1107.62" width="160" height="51.25" as="geometry" />
        </mxCell>
        <mxCell id="hPbzqFShQKLHymM82x7Q-228" value="&lt;font style=&quot;font-size: 24px;&quot;&gt;active: &lt;b&gt;&lt;font color=&quot;#ff0000&quot;&gt;True&lt;/font&gt;&lt;/b&gt;&lt;/font&gt;" style="text;html=1;strokeColor=none;fillColor=none;align=center;verticalAlign=middle;whiteSpace=wrap;rounded=0;" vertex="1" parent="1">
          <mxGeometry x="1435" y="1397.6299999999999" width="160" height="51.25" as="geometry" />
        </mxCell>
        <mxCell id="hPbzqFShQKLHymM82x7Q-229" value="&lt;font style=&quot;font-size: 24px;&quot;&gt;Bit Vector&lt;/font&gt;" style="text;html=1;strokeColor=none;fillColor=none;align=center;verticalAlign=middle;whiteSpace=wrap;rounded=0;" vertex="1" parent="1">
          <mxGeometry x="414.5" y="1397.63" width="160" height="51.25" as="geometry" />
        </mxCell>
      </root>
    </mxGraphModel>
  </diagram>
</mxfile>
